<?xml version="1.0" encoding="UTF-8"?>
<svg xmlns="http://www.w3.org/2000/svg" viewBox="0 0 24 24" width="24" height="24" fill="#ffffff">
  <path d="M19.14 12.94c.04-.31.06-.63.06-.94s-.02-.63-.06-.94l2.03-1.58a.5.5 0 0 0 .12-.64l-1.92-3.32a.5.5 0 0 0-.6-.22l-2.39.96a7.007 7.007 0 0 0-1.6-.94l-.36-2.54A.5.5 0 0 0 13 2h-2a.5.5 0 0 0-.5.42l-.36 2.54c-.57.22-1.1.52-1.6.94l-2.39-.96a.5.5 0 0 0-.6.22L2.71 8.88a.5.5 0 0 0 .12.64l2.03 1.58c-.04.31-.06.63-.06.94s.02.63.06.94L2.83 15.6a.5.5 0 0 0-.12.64l1.92 3.32c.15.26.47.36.74.22l2.39-.96c.5.42 1.03.72 1.6.94l.36 2.54c.05.28.28.48.5.48h2c.22 0 .45-.2.5-.48l.36-2.54c.57-.22 1.1-.52 1.6-.94l2.39.96c.27.11.59.03.74-.22l1.92-3.32a.5.5 0 0 0-.12-.64l-2.03-1.58zM12 15.5A3.5 3.5 0 1 1 12 8.5a3.5 3.5 0 0 1 0 7z" />
</svg>
